<svg xmlns="http://www.w3.org/2000/svg" xmlns:xlink="http://www.w3.org/1999/xlink" width="500" zoomAndPan="magnify" viewBox="0 0 375 374.999991" height="500" preserveAspectRatio="xMidYMid meet" version="1.0"><defs><g/></defs><rect x="-37.5" width="450" fill="rgb(100%, 100%, 100%)" y="-37.499999" height="449.999989" fill-opacity="1"/><rect x="-37.5" width="450" fill="rgb(90.979004%, 89.7995%, 87.059021%)" y="-37.499999" height="449.999989" fill-opacity="1"/><rect x="-37.5" width="450" fill="rgb(100%, 100%, 100%)" y="-37.499999" height="449.999989" fill-opacity="1"/><rect x="-37.5" width="450" fill="rgb(90.979004%, 89.7995%, 87.059021%)" y="-37.499999" height="449.999989" fill-opacity="1"/><g fill="rgb(21.958923%, 16.468811%, 25.099182%)" fill-opacity="1"><g transform="translate(55.500001, 203.88668)"><g><path d="M 58.25 -23.78125 C 54.4375 -13.339844 49.964844 -10.523438 46.566406 -10.523438 C 45.074219 -10.523438 44.164062 -11.269531 44.164062 -12.347656 C 44.164062 -12.925781 44.332031 -13.507812 44.578125 -14.25 L 48.640625 -24.527344 C 49.550781 -26.765625 49.964844 -28.835938 49.964844 -30.742188 C 49.964844 -34.222656 48.722656 -36.871094 46.734375 -38.945312 C 51.871094 -42.507812 55.269531 -50.875 55.269531 -56.757812 C 55.269531 -65.460938 47.726562 -70.347656 39.9375 -70.761719 C 39.523438 -70.761719 38.945312 -70.84375 38.199219 -70.84375 C 36.128906 -70.84375 32.976562 -70.515625 30.078125 -68.441406 C 29.664062 -70.347656 27.261719 -71.921875 24.609375 -71.921875 C 22.039062 -71.921875 19.140625 -70.597656 17.816406 -66.867188 L -3.066406 -7.625 C -3.3125 -6.792969 -3.480469 -6.046875 -3.480469 -5.386719 C -3.480469 -1.988281 -0.414062 0 2.898438 0 C 5.71875 0 8.617188 -1.492188 9.777344 -4.722656 L 20.878906 -36.042969 C 21.046875 -34.136719 22.125 -30.65625 27.011719 -30.65625 C 28.339844 -30.65625 29.996094 -30.988281 32.066406 -31.652344 C 34.136719 -31.570312 35.382812 -30.242188 35.382812 -28.339844 C 35.382812 -27.34375 35.214844 -26.347656 34.800781 -25.273438 L 31.734375 -17.484375 C 30.988281 -15.496094 30.574219 -13.507812 30.574219 -11.765625 C 30.574219 -4.558594 36.375 0 44.578125 0 C 53.609375 0 63.140625 -5.550781 68.441406 -21.957031 C 68.609375 -22.621094 68.773438 -23.285156 68.773438 -23.863281 C 68.773438 -26.765625 66.371094 -28.667969 63.886719 -28.667969 C 61.648438 -28.667969 59.328125 -27.261719 58.25 -23.78125 Z M 22.871094 -41.761719 L 26.847656 -53.113281 C 28.835938 -56.84375 32.5625 -59.492188 36.210938 -59.492188 C 39.359375 -59.492188 41.511719 -57.503906 41.511719 -54.523438 C 41.511719 -51.207031 39.605469 -46.320312 36.625 -44.660156 C 34.882812 -45.324219 33.144531 -45.65625 31.402344 -45.65625 C 28.007812 -45.65625 24.859375 -44.414062 22.871094 -41.761719 Z M 22.871094 -41.761719 "/></g></g></g><g fill="rgb(21.958923%, 16.468811%, 25.099182%)" fill-opacity="1"><g transform="translate(111.093449, 203.88668)"><g><path d="M 51.953125 -28.007812 C 49.632812 -28.007812 47.066406 -26.597656 46.070312 -23.449219 C 42.839844 -13.257812 37.617188 -9.859375 33.890625 -9.859375 C 32.480469 -9.859375 31.652344 -10.605469 31.652344 -11.933594 C 31.652344 -12.59375 31.816406 -13.421875 32.066406 -14.335938 L 41.347656 -41.179688 C 41.679688 -42.175781 41.84375 -43.085938 41.84375 -43.914062 C 41.84375 -47.5625 38.863281 -49.46875 35.796875 -49.46875 C 33.476562 -49.46875 31.074219 -48.390625 29.746094 -46.320312 C 28.007812 -47.394531 24.773438 -48.640625 20.550781 -48.640625 C 15.082031 -48.640625 9.113281 -45.65625 6.878906 -39.277344 L -0.910156 -16.984375 C -1.410156 -15.496094 -1.738281 -14.003906 -1.738281 -12.511719 C -1.738281 -5.632812 3.8125 0 11.101562 0 C 14.996094 0 18.976562 -1.738281 22.039062 -4.472656 C 24.691406 -0.664062 30.574219 0 33.0625 0 C 39.9375 0 49.136719 -3.480469 54.4375 -16.902344 C 55.597656 -20.136719 56.511719 -22.207031 56.511719 -23.699219 C 56.511719 -26.515625 54.355469 -28.007812 51.953125 -28.007812 Z M 24.609375 -28.835938 L 20.632812 -16.488281 C 18.890625 -11.101562 15.742188 -9.859375 14.003906 -9.859375 C 12.179688 -9.859375 11.269531 -11.019531 11.269531 -12.925781 C 11.269531 -14.003906 11.515625 -14.996094 11.765625 -15.742188 L 17.070312 -32.398438 C 18.644531 -37.453125 20.964844 -38.117188 22.289062 -38.117188 C 23.863281 -38.117188 25.605469 -36.542969 25.605469 -33.722656 C 25.605469 -32.480469 25.273438 -30.90625 24.609375 -28.835938 Z M 24.609375 -28.835938 "/></g></g></g><g fill="rgb(21.958923%, 16.468811%, 25.099182%)" fill-opacity="1"><g transform="translate(154.590563, 203.88668)"><g><path d="M 46.234375 -23.863281 C 42.589844 -13.921875 38.03125 -9.859375 34.136719 -9.859375 C 32.648438 -9.859375 31.816406 -10.605469 31.816406 -12.015625 C 31.816406 -12.59375 31.984375 -13.257812 32.234375 -14.085938 L 38.695312 -32.480469 C 39.277344 -34.136719 39.605469 -35.628906 39.605469 -37.039062 C 39.605469 -43.667969 33.972656 -48.640625 27.34375 -48.640625 C 24.113281 -48.640625 21.542969 -47.894531 19.390625 -46.320312 C 18.890625 -47.808594 16.820312 -48.640625 14.582031 -48.640625 C 12.261719 -48.640625 10.027344 -47.5625 9.199219 -45.242188 L -4.640625 -6.546875 C -4.890625 -5.800781 -4.972656 -5.136719 -4.972656 -4.472656 C -4.972656 -1.410156 -2.570312 0.164062 0.0820312 0.164062 C 2.984375 0.164062 6.296875 -1.65625 7.539062 -5.386719 C 10.441406 -13.421875 14.417969 -24.773438 17.234375 -32.730469 C 19.472656 -36.871094 22.371094 -38.863281 24.691406 -38.863281 C 26.183594 -38.863281 27.261719 -37.867188 27.261719 -36.292969 C 27.261719 -35.710938 27.09375 -34.96875 26.847656 -34.222656 L 20.796875 -17.152344 C 20.136719 -15.246094 19.71875 -13.421875 19.71875 -11.683594 C 19.71875 -4.058594 26.019531 0 33.0625 0 C 41.511719 0 50.542969 -5.71875 56.261719 -21.875 C 56.511719 -22.539062 56.675781 -23.199219 56.675781 -23.78125 C 56.675781 -26.433594 54.273438 -27.839844 51.789062 -27.839844 C 49.550781 -27.839844 47.066406 -26.597656 46.234375 -23.863281 Z M 46.234375 -23.863281 "/></g></g></g><g fill="rgb(21.958923%, 16.468811%, 25.099182%)" fill-opacity="1"><g transform="translate(198.087676, 203.88668)"><g><path d="M 45.90625 -24.609375 C 44.496094 -20.714844 42.425781 -18.476562 39.359375 -18.476562 C 36.625 -18.476562 35.214844 -20.21875 35.214844 -22.453125 C 35.214844 -23.117188 35.382812 -23.945312 35.628906 -24.691406 C 40.105469 -32.8125 43.003906 -37.203125 43.003906 -41.761719 C 43.003906 -45.820312 40.683594 -48.640625 36.128906 -48.640625 C 27.757812 -48.640625 21.792969 -36.871094 21.792969 -28.089844 C 21.792969 -26.101562 22.125 -24.277344 22.785156 -22.621094 L 18.230469 -15.742188 C 16.984375 -13.921875 14.167969 -10.523438 13.007812 -10.523438 C 12.761719 -10.523438 12.59375 -10.773438 12.59375 -11.269531 C 12.59375 -12.015625 12.675781 -12.761719 12.925781 -13.671875 L 19.222656 -40.269531 C 19.472656 -41.179688 19.554688 -42.011719 19.554688 -42.753906 C 19.554688 -46.734375 16.820312 -48.640625 13.921875 -48.640625 C 10.9375 -48.640625 7.953125 -46.734375 7.125 -43.171875 L 1.078125 -16.15625 C 0.746094 -14.667969 0.578125 -13.175781 0.578125 -11.847656 C 0.578125 -4.472656 5.304688 0 11.765625 0 C 17.648438 0 20.382812 -2.734375 25.851562 -9.03125 L 28.917969 -12.761719 C 31.238281 -10.027344 34.882812 -8.453125 39.277344 -8.453125 C 47.3125 -8.453125 53.363281 -13.835938 55.929688 -22.371094 C 56.097656 -22.871094 56.097656 -23.285156 56.097656 -23.699219 C 56.097656 -26.433594 53.527344 -28.089844 50.957031 -28.089844 C 48.804688 -28.089844 46.734375 -27.011719 45.90625 -24.609375 Z M 45.90625 -24.609375 "/></g></g></g><g fill="rgb(21.958923%, 16.468811%, 25.099182%)" fill-opacity="1"><g transform="translate(241.087681, 203.88668)"><g><path d="M 41.925781 -23.367188 C 38.28125 -13.753906 29.582031 -9.859375 22.539062 -9.859375 C 16.488281 -9.859375 12.675781 -12.761719 12.675781 -16.570312 C 12.675781 -17.316406 12.761719 -18.0625 13.09375 -18.890625 L 13.753906 -20.464844 C 16.15625 -18.976562 19.140625 -17.980469 22.453125 -17.980469 C 29.996094 -17.980469 36.625 -22.703125 38.863281 -30.160156 C 39.277344 -31.734375 39.523438 -33.308594 39.523438 -34.71875 C 39.523438 -42.589844 33.308594 -48.640625 23.945312 -48.640625 C 16.570312 -48.640625 9.363281 -44.332031 6.464844 -36.042969 L 1.574219 -21.875 C 0.910156 -19.886719 0.496094 -17.898438 0.496094 -15.992188 C 0.496094 -6.132812 9.777344 0 21.875 0 C 33.394531 0 46.484375 -5.632812 51.953125 -21.460938 C 52.203125 -22.125 52.285156 -22.703125 52.285156 -23.199219 C 52.285156 -25.769531 49.964844 -27.179688 47.480469 -27.179688 C 45.160156 -27.179688 42.671875 -25.933594 41.925781 -23.367188 Z M 23.699219 -38.863281 C 26.019531 -38.863281 27.507812 -36.957031 27.507812 -34.550781 C 27.507812 -33.890625 27.425781 -33.226562 27.179688 -32.5625 C 26.347656 -29.828125 23.863281 -28.835938 21.378906 -28.835938 C 19.804688 -28.835938 18.230469 -29.167969 17.070312 -29.828125 L 18.808594 -34.800781 C 19.71875 -37.371094 21.792969 -38.863281 23.699219 -38.863281 Z M 23.699219 -38.863281 "/></g></g></g><g fill="rgb(21.958923%, 16.468811%, 25.099182%)" fill-opacity="1"><g transform="translate(280.359362, 203.88668)"><g><path d="M 41.925781 -23.367188 C 38.28125 -13.753906 29.582031 -9.859375 22.539062 -9.859375 C 16.488281 -9.859375 12.675781 -12.761719 12.675781 -16.570312 C 12.675781 -17.316406 12.761719 -18.0625 13.09375 -18.890625 L 13.753906 -20.464844 C 16.15625 -18.976562 19.140625 -17.980469 22.453125 -17.980469 C 29.996094 -17.980469 36.625 -22.703125 38.863281 -30.160156 C 39.277344 -31.734375 39.523438 -33.308594 39.523438 -34.71875 C 39.523438 -42.589844 33.308594 -48.640625 23.945312 -48.640625 C 16.570312 -48.640625 9.363281 -44.332031 6.464844 -36.042969 L 1.574219 -21.875 C 0.910156 -19.886719 0.496094 -17.898438 0.496094 -15.992188 C 0.496094 -6.132812 9.777344 0 21.875 0 C 33.394531 0 46.484375 -5.632812 51.953125 -21.460938 C 52.203125 -22.125 52.285156 -22.703125 52.285156 -23.199219 C 52.285156 -25.769531 49.964844 -27.179688 47.480469 -27.179688 C 45.160156 -27.179688 42.671875 -25.933594 41.925781 -23.367188 Z M 23.699219 -38.863281 C 26.019531 -38.863281 27.507812 -36.957031 27.507812 -34.550781 C 27.507812 -33.890625 27.425781 -33.226562 27.179688 -32.5625 C 26.347656 -29.828125 23.863281 -28.835938 21.378906 -28.835938 C 19.804688 -28.835938 18.230469 -29.167969 17.070312 -29.828125 L 18.808594 -34.800781 C 19.71875 -37.371094 21.792969 -38.863281 23.699219 -38.863281 Z M 23.699219 -38.863281 "/></g></g></g><g fill="rgb(21.958923%, 16.468811%, 25.099182%)" fill-opacity="1"><g transform="translate(167.906243, 319.386673)"><g><path d="M 42.011719 -24.03125 C 38.863281 -15.910156 34.636719 -9.859375 31.15625 -9.859375 C 29.996094 -9.859375 29.414062 -10.9375 29.414062 -12.097656 C 29.414062 -12.59375 29.5 -13.257812 29.746094 -13.921875 L 34.636719 -27.507812 C 35.132812 -29.167969 35.464844 -30.65625 35.464844 -32.066406 C 35.464844 -39.9375 25.519531 -43.253906 20.878906 -44.660156 C 21.128906 -45.324219 21.210938 -46.070312 21.210938 -46.734375 C 21.210938 -50.542969 17.816406 -53.777344 14.085938 -53.777344 C 9.199219 -53.777344 6.296875 -49.46875 6.296875 -44.746094 C 6.296875 -42.671875 7.042969 -40.519531 8.367188 -38.863281 L 2.320312 -22.539062 C 2.15625 -21.875 2.070312 -21.210938 2.070312 -20.714844 C 2.070312 -17.980469 4.226562 -16.570312 6.546875 -16.570312 C 8.867188 -16.570312 11.269531 -17.898438 12.261719 -20.550781 L 16.902344 -32.976562 C 19.222656 -32.234375 22.289062 -31.652344 22.289062 -28.835938 C 22.289062 -28.421875 22.207031 -27.921875 22.039062 -27.34375 L 18.394531 -17.234375 C 17.730469 -15.328125 17.402344 -13.589844 17.402344 -11.933594 C 17.402344 -4.722656 23.117188 0 29.996094 0 C 39.027344 0 47.230469 -8.039062 52.117188 -22.039062 C 52.285156 -22.539062 52.367188 -22.953125 52.367188 -23.367188 C 52.367188 -25.851562 49.632812 -27.507812 46.980469 -27.507812 C 44.828125 -27.507812 42.753906 -26.515625 42.011719 -24.03125 Z M 42.011719 -24.03125 "/></g></g></g><g fill="rgb(21.958923%, 16.468811%, 25.099182%)" fill-opacity="1"><g transform="translate(69.564134, 246.338933)"><g><path d="M 10.546875 -3.546875 C 10.546875 -2.378906 10.085938 -1.429688 9.171875 -0.703125 C 8.253906 0.0234375 7.097656 0.390625 5.703125 0.390625 C 4.941406 0.390625 4.117188 0.273438 3.234375 0.046875 C 2.347656 -0.179688 1.613281 -0.484375 1.03125 -0.859375 L 1.015625 -1.40625 C 1.015625 -2.488281 1.117188 -3.519531 1.328125 -4.5 L 2.734375 -4.5 L 3.703125 -1.765625 C 4.523438 -1.378906 5.460938 -1.1875 6.515625 -1.1875 C 7.234375 -1.53125 7.59375 -2.082031 7.59375 -2.84375 C 7.59375 -3.53125 7.171875 -4.109375 6.328125 -4.578125 L 3.390625 -6.0625 C 1.835938 -6.957031 1.0625 -8.078125 1.0625 -9.421875 C 1.0625 -10.554688 1.53125 -11.484375 2.46875 -12.203125 C 3.40625 -12.921875 4.613281 -13.28125 6.09375 -13.28125 C 7.394531 -13.28125 8.6875 -13.039062 9.96875 -12.5625 C 9.96875 -11.1875 9.851562 -9.992188 9.625 -8.984375 L 8.0625 -8.984375 L 7.5 -11.171875 C 6.738281 -11.566406 5.832031 -11.753906 4.78125 -11.734375 C 4.175781 -11.347656 3.875 -10.816406 3.875 -10.140625 C 3.875 -9.742188 4.046875 -9.382812 4.390625 -9.0625 C 4.742188 -8.75 5.453125 -8.347656 6.515625 -7.859375 C 7.578125 -7.378906 8.359375 -6.96875 8.859375 -6.625 C 9.359375 -6.28125 9.765625 -5.851562 10.078125 -5.34375 C 10.390625 -4.84375 10.546875 -4.242188 10.546875 -3.546875 Z M 10.546875 -3.546875 "/></g></g></g><g fill="rgb(21.958923%, 16.468811%, 25.099182%)" fill-opacity="1"><g transform="translate(86.924943, 246.338933)"><g><path d="M 11.09375 -3.890625 C 11.125 -2.617188 11.046875 -1.320312 10.859375 0 L 0.625 0 L 0.515625 -0.625 C 0.890625 -0.875 1.441406 -1.140625 2.171875 -1.421875 L 2.171875 -11.703125 L 0.71875 -11.890625 L 0.75 -12.875 L 10.96875 -12.875 C 11.03125 -11.8125 10.925781 -10.570312 10.65625 -9.15625 L 9 -9.15625 L 8.671875 -11.09375 L 5.15625 -11.359375 L 5.15625 -7.140625 L 9.359375 -7.484375 L 9.359375 -5.5 L 5.15625 -5.671875 L 5.15625 -1.625 L 8.8125 -1.875 L 9.453125 -4.015625 Z M 11.09375 -3.890625 "/></g></g></g><g fill="rgb(21.958923%, 16.468811%, 25.099182%)" fill-opacity="1"><g transform="translate(105.048993, 246.338933)"><g><path d="M 13.234375 3.5625 L 7.421875 0.359375 L 6.703125 0.390625 C 4.816406 0.390625 3.273438 -0.226562 2.078125 -1.46875 C 0.878906 -2.707031 0.28125 -4.335938 0.28125 -6.359375 C 0.28125 -8.398438 0.867188 -10.0625 2.046875 -11.34375 C 3.222656 -12.632812 4.722656 -13.28125 6.546875 -13.28125 C 8.410156 -13.28125 9.941406 -12.628906 11.140625 -11.328125 C 12.335938 -10.023438 12.9375 -8.335938 12.9375 -6.265625 C 12.9375 -4.816406 12.640625 -3.585938 12.046875 -2.578125 C 11.453125 -1.566406 10.65625 -0.804688 9.65625 -0.296875 L 14.546875 0.9375 Z M 3.40625 -6.71875 C 3.40625 -5.132812 3.71875 -3.835938 4.34375 -2.828125 C 4.96875 -1.828125 5.863281 -1.328125 7.03125 -1.328125 C 7.332031 -1.328125 7.703125 -1.382812 8.140625 -1.5 C 8.640625 -1.894531 9.039062 -2.515625 9.34375 -3.359375 C 9.644531 -4.210938 9.796875 -5.160156 9.796875 -6.203125 C 9.796875 -7.785156 9.472656 -9.070312 8.828125 -10.0625 C 8.191406 -11.050781 7.34375 -11.546875 6.28125 -11.546875 C 5.84375 -11.546875 5.367188 -11.457031 4.859375 -11.28125 C 4.421875 -10.914062 4.066406 -10.320312 3.796875 -9.5 C 3.535156 -8.675781 3.40625 -7.75 3.40625 -6.71875 Z M 3.40625 -6.71875 "/></g></g></g><g fill="rgb(21.958923%, 16.468811%, 25.099182%)" fill-opacity="1"><g transform="translate(125.051794, 246.338933)"><g><path d="M 14.25 -12.25 C 13.769531 -11.96875 13.222656 -11.703125 12.609375 -11.453125 L 12.609375 -5.59375 C 12.597656 -3.507812 12.140625 -1.992188 11.234375 -1.046875 C 10.328125 -0.0976562 9.085938 0.375 7.515625 0.375 C 5.722656 0.375 4.304688 -0.15625 3.265625 -1.21875 C 2.222656 -2.28125 1.691406 -3.75 1.671875 -5.625 L 1.671875 -11.671875 L 0.15625 -11.890625 L 0.171875 -12.875 L 6.171875 -12.875 L 6.28125 -12.25 C 5.800781 -11.96875 5.253906 -11.703125 4.640625 -11.453125 L 4.640625 -5.1875 C 4.640625 -3.945312 4.921875 -3.003906 5.484375 -2.359375 C 6.046875 -1.722656 6.816406 -1.40625 7.796875 -1.40625 C 8.429688 -1.40625 9 -1.5625 9.5 -1.875 C 10.132812 -2.476562 10.46875 -3.65625 10.5 -5.40625 L 10.5 -11.65625 L 8.828125 -11.890625 L 8.84375 -12.875 L 14.140625 -12.875 Z M 14.25 -12.25 "/></g></g></g><g fill="rgb(21.958923%, 16.468811%, 25.099182%)" fill-opacity="1"><g transform="translate(145.524288, 246.338933)"><g><path d="M 11.09375 -3.890625 C 11.125 -2.617188 11.046875 -1.320312 10.859375 0 L 0.625 0 L 0.515625 -0.625 C 0.890625 -0.875 1.441406 -1.140625 2.171875 -1.421875 L 2.171875 -11.703125 L 0.71875 -11.890625 L 0.75 -12.875 L 10.96875 -12.875 C 11.03125 -11.8125 10.925781 -10.570312 10.65625 -9.15625 L 9 -9.15625 L 8.671875 -11.09375 L 5.15625 -11.359375 L 5.15625 -7.140625 L 9.359375 -7.484375 L 9.359375 -5.5 L 5.15625 -5.671875 L 5.15625 -1.625 L 8.8125 -1.875 L 9.453125 -4.015625 Z M 11.09375 -3.890625 "/></g></g></g><g fill="rgb(21.958923%, 16.468811%, 25.099182%)" fill-opacity="1"><g transform="translate(163.648341, 246.338933)"><g><path d="M 6.953125 -1 L 6.9375 0 L 0.625 0 L 0.515625 -0.625 C 0.890625 -0.875 1.441406 -1.140625 2.171875 -1.421875 L 2.171875 -11.671875 L 0.671875 -11.890625 L 0.6875 -12.875 L 6.671875 -12.875 L 6.796875 -12.25 C 6.304688 -11.96875 5.757812 -11.703125 5.15625 -11.453125 L 5.15625 -1.25 Z M 6.953125 -1 "/></g></g></g><g fill="rgb(21.958923%, 16.468811%, 25.099182%)" fill-opacity="1"><g transform="translate(177.16569, 246.338933)"><g/></g></g><g fill="rgb(21.958923%, 16.468811%, 25.099182%)" fill-opacity="1"><g transform="translate(188.401004, 246.338933)"><g/></g></g><g fill="rgb(21.958923%, 16.468811%, 25.099182%)" fill-opacity="1"><g transform="translate(199.636318, 246.338933)"><g/></g></g><g fill="rgb(21.958923%, 16.468811%, 25.099182%)" fill-opacity="1"><g transform="translate(210.868813, 246.338933)"><g><path d="M 14.21875 -1 L 14.1875 0 L 8.03125 0 L 7.90625 -0.625 C 8.269531 -0.84375 8.835938 -1.117188 9.609375 -1.453125 L 8.796875 -3.5625 L 4.125 -3.5625 L 3.265625 -1.25 L 5.078125 -1 L 5.046875 0 L -0.28125 0 L -0.390625 -0.625 C 0.00390625 -0.875 0.546875 -1.132812 1.234375 -1.40625 L 5.5625 -12.046875 L 5.328125 -12.640625 L 7.890625 -13.359375 L 12.828125 -1.1875 Z M 8.21875 -5.046875 L 6.453125 -9.671875 L 4.703125 -5.046875 Z M 8.21875 -5.046875 "/></g></g></g></svg>